<?xml version="1.0" standalone="no"?>
<!DOCTYPE svg PUBLIC "-//W3C//DTD SVG 20010904//EN"
 "http://www.w3.org/TR/2001/REC-SVG-20010904/DTD/svg10.dtd">
<svg version="1.0" xmlns="http://www.w3.org/2000/svg"
 width="700.000000pt" height="700.000000pt" viewBox="0 0 700.000000 700.000000"
 preserveAspectRatio="xMidYMid meet">
<metadata>
Created by potrace 1.14, written by Peter Selinger 2001-2017
</metadata>
<g transform="translate(0.000000,700.000000) scale(0.100000,-0.100000)"
fill="#000000" stroke="none">
<path d="M3499 6988 c-8 -24 -11 -94 -14 -298 -2 -155 -7 -256 -14 -274 -20
-50 -72 -79 -163 -90 -31 -4 -88 -17 -128 -29 l-71 -22 -3 -97 c-6 -160 -23
-176 -295 -283 -188 -74 -258 -118 -327 -202 -21 -27 -41 -50 -44 -53 -5 -5
-62 -75 -100 -124 -104 -133 -195 -225 -384 -389 -12 -10 -34 -31 -51 -45 -16
-15 -77 -68 -135 -117 -58 -50 -110 -94 -116 -100 -11 -10 -59 -51 -178 -149
-175 -144 -204 -190 -191 -299 12 -105 13 -131 1 -198 -18 -99 4 -204 70 -329
56 -108 131 -177 240 -221 117 -48 207 -68 311 -67 187 2 341 77 536 261 151
142 258 161 497 89 251 -77 352 -95 520 -93 52 0 104 2 115 5 54 11 119 16
111 9 -30 -30 -370 -384 -391 -408 -15 -16 -49 -52 -74 -80 -79 -84 -272 -314
-347 -415 -293 -392 -499 -797 -564 -1112 -34 -161 -43 -343 -27 -488 4 -30
10 -80 13 -111 l6 -57 -40 0 c-48 -1 -87 -20 -123 -59 -36 -40 -46 -70 -46
-133 l0 -55 -48 -8 c-72 -12 -117 -47 -151 -117 -16 -31 -18 -78 -18 -432 l-1
-398 1857 0 c1763 0 1858 1 1859 18 5 85 0 796 -5 817 -19 73 -97 130 -187
134 -12 1 -16 14 -17 61 -1 70 -29 126 -79 160 -29 20 -69 27 -164 30 -30 0
-30 194 1 330 12 52 24 106 26 120 3 14 10 43 16 65 5 22 12 47 13 55 17 81
137 522 175 645 6 17 23 75 39 130 17 55 55 181 85 280 45 147 89 307 111 405
40 174 46 208 80 445 20 132 25 446 11 615 -4 52 -9 97 -11 100 -1 3 -6 28 -9
55 -4 28 -9 57 -11 65 -2 8 -7 31 -10 50 -11 65 -46 194 -82 305 -177 541
-475 952 -886 1220 -103 67 -259 149 -344 181 -35 13 -71 28 -80 34 -10 5 -62
24 -117 41 -87 28 -104 38 -150 84 -29 28 -65 74 -81 101 -37 64 -129 185
-197 259 -81 89 -213 199 -219 183z"/>
</g>
</svg>
